<svg width="74" height="73" viewBox="0 0 74 73" fill="none" xmlns="http://www.w3.org/2000/svg">
<path d="M44.3877 57.8738C44.3947 57.4754 40.8208 57.9329 40.0612 58.0355C38.7605 58.2113 40.2068 67.7509 39.1624 68.9993C36.2404 72.4922 26.9093 69.3849 22.953 70.0728C20.8588 70.4369 14.8245 71.3201 12.9564 69.4605C12.8058 69.3107 12.7341 67.7906 12.7592 65.575C12.9253 50.9111 12.6314 36.3633 12.9796 21.7179C13.0965 16.801 4.11801 20.9651 0.693973 17.7081C-0.451241 16.6188 6.96437 3.32392 8.16695 2.10792C9.68933 0.568559 22.5366 -0.190591 23.6637 1.68251C25.186 4.21237 29.8172 17.3034 26.2479 18.6707C20.5819 20.8412 17.0645 18.439 12.8187 16.1256M44.3877 57.8738C44.3711 58.8126 43.9663 52.6485 44.7475 52.3814C52.429 49.7545 46.3068 67.7358 50.8868 71.1029C56.389 72.0462 62.5203 71.1054 68.0502 71.0251M44.3877 57.8738C44.4073 62.2535 44.6015 66.6599 44.8558 71.044M12.8187 16.1256C10.2199 14.7096 8.2798 13.8957 8.32262 10.514M12.8187 16.1256C15.043 15.3507 16.7029 14.9995 18.6006 13.5238M12.8187 16.1256C8.54851 17.6132 3.45756 13.8793 8.32262 10.514M8.32262 10.514C8.37503 6.37497 13.4573 1.25583 17.7319 3.9533M8.32262 10.514C10.1333 9.26156 12.7349 9.34389 14.8286 9.10433M17.7319 3.9533C18.8772 4.67605 19.8696 5.71116 20.7533 6.72424M17.7319 3.9533C19.8924 2.68557 22.5705 4.50302 20.7533 6.72424M17.7319 3.9533C15.5997 5.20446 14.8276 6.75923 14.8286 9.10433M20.7533 6.72424C23.2565 9.59354 21.1328 11.5546 18.6006 13.5238M20.7533 6.72424C19.331 8.4629 16.9547 8.86107 14.8286 9.10433M18.6006 13.5238C16.4341 12.709 14.8297 11.6128 14.8286 9.10433M18.6006 13.5238C20.0107 14.0541 21.2911 14.444 22.5462 15.2532M69.6942 71.4402C69.6942 71.4402 70.6174 70.9655 71.4222 70.8649C72.4204 70.7402 72.5742 71.4441 72.5742 71.4441" stroke="#C9956A" style="stroke:#C9956A;stroke:color(display-p3 0.7882 0.5843 0.4157);stroke-opacity:1;" stroke-width="1.152" stroke-linecap="round" stroke-linejoin="round"/>
</svg>
